#!OML:ASF X:\für Bonn\!DataBase\2005_08_11_Bastian_Final\c3d\Bastian.ASF
:FULLY-SPECIFIED
:DEGREES
114
root 0.740287 17.4235 -0.296369 164.04 -11.74 -172.115
lowerback 6.58555 -3.73532 6.44552
upperback 6.48889 -5.5968 3.15223
thorax 2.82405 -2.97293 -0.105764
lowerneck -0.664948 -8.212 -5.43825
upperneck -1.45105 -11.0567 8.86871
head 0.523123 -5.57961 3.66053
rclavicle 6.65929e-015 3.02153e-014
rhumerus -37.7545 33.0725 -100.081
rradius 40.4928
rwrist -34.18
rhand -37.6679 7.57771
rfingers 7.12502
rthumb -10.7189 -22.1288
lclavicle 6.65929e-015 3.02153e-014
lhumerus -7.44045 -46.7329 92.8257
lradius 53.7443
lwrist -8.18545
lhand -43.5022 -9.98404
lfingers 7.12502
lthumb -16.3419 19.3474
rfemur -9.98186 2.32591 27.769
rtibia 61.3956
rfoot -2.91287 -20.8881
rtoes -10.7252
lfemur 8.90783 -2.53545 -13.6413
ltibia 26.5071
lfoot -14.0811 -0.863655
ltoes 0.170445
115
root 0.770685 17.4171 -0.330899 164.632 -11.3539 -172.25
lowerback 5.78364 -3.581 6.36154
upperback 6.08875 -5.34963 3.07659
thorax 2.85117 -2.81565 -0.193668
lowerneck -0.613614 -8.14824 -5.48851
upperneck -1.07304 -10.9842 8.67189
head 0.620186 -5.53566 3.5982
rclavicle 2.79914e-014 -3.61788e-014
rhumerus -37.6214 33.3537 -100.423
rradius 40.4497
rwrist -34.4056
rhand -37.7364 7.70974
rfingers 7.12502
rthumb -10.785 -21.9934
lclavicle 2.79914e-014 -3.61788e-014
lhumerus -9.42666 -47.5253 93.8185
lradius 51.1899
lwrist -8.3805
lhand -43.0725 -9.43788
lfingers 7.12502
lthumb -15.9282 19.9271
rfemur -8.67945 2.20799 27.7432
rtibia 58.6599
rfoot -4.42844 -20.299
rtoes -12.1862
lfemur 8.34043 -2.46307 -13.6267
ltibia 26.8515
lfoot -14.4477 -0.604671
ltoes -0.0278022
116
root 0.803774 17.4051 -0.363178 165.187 -10.9387 -172.374
lowerback 5.02182 -3.41846 6.24823
upperback 5.72601 -5.10443 3.02591
thorax 2.90356 -2.666 -0.234501
lowerneck -0.611156 -8.08145 -5.52139
upperneck -0.724877 -10.9034 8.45582
head 0.713298 -5.48786 3.52527
rclavicle 1.11257e-014 -7.55382e-015
rhumerus -37.4519 33.7226 -100.743
rradius 40.3994
rwrist -34.675
rhand -37.8093 7.82169
rfingers 7.12502
rthumb -10.8553 -21.8778
lclavicle 1.11257e-014 -7.55382e-015
lhumerus -11.4008 -48.3241 94.8908
lradius 48.6049
lwrist -8.78744
lhand -42.7952 -8.68939
lfingers 7.12502
lthumb -15.6612 20.6967
rfemur -7.45011 2.08083 27.7522
rtibia 56.0516
rfoot -6.02774 -19.696
rtoes -13.4019
lfemur 7.76391 -2.37473 -13.5845
ltibia 27.2748
lfoot -14.8576 -0.380079
ltoes -0.15056
117
root 0.840405 17.3909 -0.393649 165.714 -10.5042 -172.513
lowerback 4.29926 -3.25074 6.10159
upperback 5.40183 -4.85916 2.96333
thorax 2.97829 -2.52015 -0.264053
lowerneck -0.687164 -8.01562 -5.54167
upperneck -0.366669 -10.8228 8.25906
head 0.824025 -5.43986 3.45304
rclavicle -5.6739e-014 9.97899e-014
rhumerus -37.2172 34.0441 -101.03
rradius 40.3469
rwrist -34.87
rhand -37.8345 7.81331
rfingers 7.12502
rthumb -10.8796 -21.8849
lclavicle -5.6739e-014 9.97899e-014
lhumerus -13.384 -49.1821 96.0158
lradius 46.0467
lwrist -9.23594
lhand -42.6099 -7.77444
lfingers 7.12502
lthumb -15.4826 21.6256
rfemur -6.31789 1.92117 27.7518
rtibia 53.6148
rfoot -7.76214 -19.0766
rtoes -13.8168
lfemur 7.19627 -2.31567 -13.5659
ltibia 27.7586
lfoot -15.318 -0.0802484
ltoes -0.461383
118
root 0.8787 17.3736 -0.421417 166.232 -10.043 -172.647
lowerback 3.58075 -3.07368 5.94633
upperback 5.11871 -4.61084 2.90289
thorax 3.09672 -2.37539 -0.283992
lowerneck -0.81998 -7.94422 -5.50872
upperneck -0.0489531 -10.7316 8.06798
head 0.928119 -5.38707 3.37236
rclavicle -3.32685e-014 2.22639e-014
rhumerus -36.8824 34.3519 -101.271
rradius 40.2958
rwrist -35.0769
rhand -37.8333 7.65444
rfingers 7.12502
rthumb -10.8785 -22.0438
lclavicle -3.32685e-014 2.22639e-014
lhumerus -15.4 -49.9929 97.2438
lradius 43.4533
lwrist -9.82283
lhand -42.4624 -6.67796
lfingers 7.12502
lthumb -15.3406 22.733
rfemur -5.33587 1.63575 27.7349
rtibia 51.3776
rfoot -9.41834 -18.3939
rtoes -13.661
lfemur 6.61626 -2.21661 -13.5274
ltibia 28.2546
lfoot -15.7583 0.192675
ltoes -0.990478
119
root 0.918984 17.3581 -0.447198 166.737 -9.58436 -172.785
lowerback 2.88313 -2.90079 5.77004
upperback 4.87009 -4.3737 2.84267
thorax 3.24189 -2.23908 -0.287604
lowerneck -1.00654 -7.8755 -5.47619
upperneck 0.255233 -10.6408 7.8842
head 1.03803 -5.33409 3.29269
rclavicle -2.68297e-014 3.02153e-014
rhumerus -36.4752 34.5982 -101.445
rradius 40.2562
rwrist -35.1838
rhand -37.7773 7.39132
rfingers 7.12502
rthumb -10.8244 -22.3097
lclavicle -2.68297e-014 3.02153e-014
lhumerus -17.4757 -50.8003 98.5609
lradius 40.9141
lwrist -10.2389
lhand -42.274 -5.49531
lfingers 7.12502
lthumb -15.1591 23.9294
rfemur -4.50053 1.23202 27.694
rtibia 49.3567
rfoot -10.9996 -17.6936
rtoes -12.5022
lfemur 6.07002 -2.17103 -13.5084
ltibia 28.7057
lfoot -16.1771 0.529641
ltoes -1.3121
120
root 0.960038 17.3459 -0.472094 167.213 -9.10221 -172.941
lowerback 2.23755 -2.73306 5.58307
upperback 4.64571 -4.14232 2.76348
thorax 3.38301 -2.10765 -0.298312
lowerneck -1.22757 -7.79941 -5.41875
upperneck 0.544633 -10.5392 7.71534
head 1.14817 -5.27596 3.21344
rclavicle -4.06266e-015 6.75868e-015
rhumerus -36.0509 34.8048 -101.613
rradius 40.2835
rwrist -35.284
rhand -37.6542 7.03156
rfingers 7.12502
rthumb -10.7057 -22.6757
lclavicle -4.06266e-015 6.75868e-015
lhumerus -19.6681 -51.7403 100.017
lradius 38.4141
lwrist -10.2766
lhand -42.0348 -4.20006
lfingers 7.12502
lthumb -14.9287 25.242
rfemur -3.77947 0.80206 27.621
rtibia 47.5563
rfoot -12.4736 -16.998
rtoes -10.7947
lfemur 5.60075 -2.10255 -13.5052
ltibia 29.0691
lfoot -16.55 0.856847
ltoes -1.57159
121
root 1.00247 17.3372 -0.49477 167.657 -8.61119 -173.082
lowerback 1.63598 -2.57055 5.40952
upperback 4.43629 -3.91807 2.68647
thorax 3.51483 -1.98178 -0.30837
lowerneck -1.42823 -7.71817 -5.35016
upperneck 0.794533 -10.4296 7.5504
head 1.24129 -5.2149 3.1362
rclavicle -5.0541e-014 5.08889e-014
rhumerus -35.6147 34.8742 -101.744
rradius 40.3343
rwrist -35.2451
rhand -37.4835 6.58972
rfingers 7.12502
rthumb -10.541 -23.126
lclavicle -5.0541e-014 5.08889e-014
lhumerus -22.0816 -52.8517 101.711
lradius 36.0705
lwrist -9.72053
lhand -41.6942 -2.82491
lfingers 7.12502
lthumb -14.6005 26.6412
rfemur -3.17224 0.454293 27.5751
rtibia 45.9664
rfoot -13.9305 -16.417
rtoes -9.24013
lfemur 5.20703 -2.00544 -13.4731
ltibia 29.3213
lfoot -16.8707 1.18154
ltoes -2.05791
122
root 1.04608 17.3334 -0.516149 168.078 -8.09847 -173.237
lowerback 1.08982 -2.40406 5.23368
upperback 4.24735 -3.68564 2.58733
thorax 3.63621 -1.85304 -0.334027
lowerneck -1.67455 -7.63493 -5.2644
upperneck 1.04564 -10.319 7.42947
head 1.34499 -5.15319 3.06933
rclavicle 3.52843e-015 3.57812e-015
rhumerus -35.1859 34.9084 -101.881
rradius 40.4372
rwrist -35.1475
rhand -37.284 6.14236
rfingers 7.12502
rthumb -10.3487 -23.583
lclavicle 3.52843e-015 3.57812e-015
lhumerus -24.6719 -54.0392 103.646
lradius 33.7828
lwrist -8.63074
lhand -41.2377 -1.54206
lfingers 7.12502
lthumb -14.1607 27.9553
rfemur -2.6729 0.142681 27.5146
rtibia 44.5752
rfoot -15.2194 -15.9045
rtoes -7.8284
lfemur 4.88973 -1.93708 -13.4684
ltibia 29.478
lfoot -17.1359 1.5793
ltoes -2.49452
